HIERARCHY
ROOT hip
{
  OFFSET 0.00112043 5.09927 -9.65472
  CHANNELS 6 Xposition Yposition Zposition Zrotation Xrotation Yrotation
  JOINT abdomen
  {
    OFFSET 0 -1.186 -1.5018
    CHANNELS 3 Zrotation Xrotation Yrotation
    JOINT abdomen2
    {
      OFFSET 0 9.964 0.2134
      CHANNELS 3 Zrotation Xrotation Yrotation
      JOINT chest
      {
        OFFSET 0 13.134 -3.2573
        CHANNELS 3 Zrotation Xrotation Yrotation
        JOINT neck
        {
          OFFSET 0 20.686 -1.6905
          CHANNELS 3 Zrotation Xrotation Yrotation
          JOINT head
          {
            OFFSET 0 7.238 -0.1237
            CHANNELS 3 Zrotation Xrotation Yrotation
            End Site
            {
              OFFSET 0 0 0
            }
          }
        }
        JOINT lCollar
        {
          OFFSET 1.7069 20.075 5.0056
          CHANNELS 3 Zrotation Xrotation Yrotation
          JOINT lShldr
          {
            OFFSET 13.6458 -0.047 -4.849
            CHANNELS 3 Zrotation Xrotation Yrotation
            JOINT lForeArm
            {
              OFFSET 28.3255 -0.9759 2.2888
              CHANNELS 3 Zrotation Xrotation Yrotation
              JOINT lHand
              {
                OFFSET 22.1583 -0.53 10.8316
                CHANNELS 3 Zrotation Xrotation Yrotation
                JOINT lThumb1
                {
                  OFFSET 0.786 0.112 2.5817
                  CHANNELS 3 Zrotation Xrotation Yrotation
                  JOINT lThumb2
                  {
                    OFFSET 0.3601 -0.878 4.2331
                    CHANNELS 3 Zrotation Xrotation Yrotation
                    JOINT lThumb2_End
                    {
                      OFFSET 1.8127 -1.216 2.2227
                      CHANNELS 3 Zrotation Xrotation Yrotation
                      End Site
                      {
                        OFFSET 0.0181 -0.0122 0.0222
                      }
                    }
                  }
                }
                JOINT lCarpal1
                {
                  OFFSET 0.9571 1.114 1.7695
                  CHANNELS 3 Zrotation Xrotation Yrotation
                  JOINT lIndex1
                  {
                    OFFSET 4.1246 0.487 4.1451
                    CHANNELS 3 Zrotation Xrotation Yrotation
                    JOINT lIndex2
                    {
                      OFFSET 3.4052 -1.454 2.7682
                      CHANNELS 3 Zrotation Xrotation Yrotation
                      JOINT lIndex2_End
                      {
                        OFFSET 1.4531 -1.795 1.2713
                        CHANNELS 3 Zrotation Xrotation Yrotation
                        End Site
                        {
                          OFFSET 0.0145 -0.0179 0.0127
                        }
                      }
                    }
                  }
                  JOINT lMid1
                  {
                    OFFSET 5.6954 0.21 2.1184
                    CHANNELS 3 Zrotation Xrotation Yrotation
                    JOINT lMid2
                    {
                      OFFSET 3.9766 -1.54 2.3863
                      CHANNELS 3 Zrotation Xrotation Yrotation
                      JOINT lMid2_End
                      {
                        OFFSET 1.4042 -1.926 1.125
                        CHANNELS 3 Zrotation Xrotation Yrotation
                        End Site
                        {
                          OFFSET 0.014 -0.0193 0.0113
                        }
                      }
                    }
                  }
                }
                JOINT lCarpal2
                {
                  OFFSET 2.0956 0.66 -0.3894
                  CHANNELS 3 Zrotation Xrotation Yrotation
                  JOINT lRing1
                  {
                    OFFSET 5.0395 -0.09 2.4971
                    CHANNELS 3 Zrotation Xrotation Yrotation
                    JOINT lRing2
                    {
                      OFFSET 3.7921 -1.552 1.4806
                      CHANNELS 3 Zrotation Xrotation Yrotation
                      JOINT lRing2_End
                      {
                        OFFSET 1.4655 -1.808 0.9609
                        CHANNELS 3 Zrotation Xrotation Yrotation
                        End Site
                        {
                          OFFSET 0.0147 -0.0181 0.0096
                        }
                      }
                    }
                  }
                  JOINT lPinky1
                  {
                    OFFSET 4.9141 -1.269 0.3591
                    CHANNELS 3 Zrotation Xrotation Yrotation
                    JOINT lPinky2
                    {
                      OFFSET 3.1477 -1.685 0.8462
                      CHANNELS 3 Zrotation Xrotation Yrotation
                      JOINT lPinky2_End
                      {
                        OFFSET 0.8055 -1.585 0.7955
                        CHANNELS 3 Zrotation Xrotation Yrotation
                        End Site
                        {
                          OFFSET 0.0081 -0.0158 0.008
                        }
                      }
                    }
                  }
                }
              }
            }
          }
        }
        JOINT rCollar
        {
          OFFSET -1.7069 20.075 5.0056
          CHANNELS 3 Zrotation Xrotation Yrotation
          JOINT rShldr
          {
            OFFSET -13.6458 -0.047 -4.849
            CHANNELS 3 Zrotation Xrotation Yrotation
            JOINT rForeArm
            {
              OFFSET -28.3255 -0.9759 2.2888
              CHANNELS 3 Zrotation Xrotation Yrotation
              JOINT rHand
              {
                OFFSET -22.1583 -0.53 10.8316
                CHANNELS 3 Zrotation Xrotation Yrotation
                JOINT rThumb1
                {
                  OFFSET -0.786 0.112 2.5817
                  CHANNELS 3 Zrotation Xrotation Yrotation
                  JOINT rThumb2
                  {
                    OFFSET -0.3601 -0.878 4.2331
                    CHANNELS 3 Zrotation Xrotation Yrotation
                    JOINT rThumb2_End
                    {
                      OFFSET -1.8127 -1.216 2.2227
                      CHANNELS 3 Zrotation Xrotation Yrotation
                      End Site
                      {
                        OFFSET -0.0181 -0.0122 0.0222
                      }
                    }
                  }
                }
                JOINT rCarpal1
                {
                  OFFSET -0.9571 1.114 1.7695
                  CHANNELS 3 Zrotation Xrotation Yrotation
                  JOINT rIndex1
                  {
                    OFFSET -4.1246 0.487 4.1451
                    CHANNELS 3 Zrotation Xrotation Yrotation
                    JOINT rIndex2
                    {
                      OFFSET -3.4052 -1.454 2.7682
                      CHANNELS 3 Zrotation Xrotation Yrotation
                      JOINT rIndex2_End
                      {
                        OFFSET -1.4531 -1.795 1.2713
                        CHANNELS 3 Zrotation Xrotation Yrotation
                        End Site
                        {
                          OFFSET -0.0145 -0.018 0.0127
                        }
                      }
                    }
                  }
                  JOINT rMid1
                  {
                    OFFSET -5.6954 0.21 2.1184
                    CHANNELS 3 Zrotation Xrotation Yrotation
                    JOINT rMid2
                    {
                      OFFSET -3.9766 -1.54 2.3863
                      CHANNELS 3 Zrotation Xrotation Yrotation
                      JOINT rMid2_End
                      {
                        OFFSET -1.4042 -1.926 1.125
                        CHANNELS 3 Zrotation Xrotation Yrotation
                        End Site
                        {
                          OFFSET -0.014 -0.0193 0.0113
                        }
                      }
                    }
                  }
                }
                JOINT rCarpal2
                {
                  OFFSET -2.0956 0.66 -0.3894
                  CHANNELS 3 Zrotation Xrotation Yrotation
                  JOINT rRing1
                  {
                    OFFSET -5.0395 -0.09 2.4971
                    CHANNELS 3 Zrotation Xrotation Yrotation
                    JOINT rRing2
                    {
                      OFFSET -3.7921 -1.552 1.4806
                      CHANNELS 3 Zrotation Xrotation Yrotation
                      JOINT rRing2_End
                      {
                        OFFSET -1.4655 -1.808 0.9609
                        CHANNELS 3 Zrotation Xrotation Yrotation
                        End Site
                        {
                          OFFSET -0.0147 -0.0181 0.0096
                        }
                      }
                    }
                  }
                  JOINT rPinky1
                  {
                    OFFSET -4.9141 -1.269 0.3592
                    CHANNELS 3 Zrotation Xrotation Yrotation
                    JOINT rPinky2
                    {
                      OFFSET -3.1477 -1.685 0.8462
                      CHANNELS 3 Zrotation Xrotation Yrotation
                      JOINT rPinky2_End
                      {
                        OFFSET -0.8055 -1.585 0.7955
                        CHANNELS 3 Zrotation Xrotation Yrotation
                        End Site
                        {
                          OFFSET -0.0081 -0.0158 0.008
                        }
                      }
                    }
                  }
                }
              }
            }
          }
        }
      }
    }
  }
  JOINT lThigh
  {
    OFFSET 8.367 -8.2066 0.5982
    CHANNELS 3 Zrotation Xrotation Yrotation
    JOINT lShin
    {
      OFFSET 2.1923 -43.463 -0.4932
      CHANNELS 3 Zrotation Xrotation Yrotation
      JOINT lFoot
      {
        OFFSET 0.7333 -45.8593 -2.6451
        CHANNELS 3 Zrotation Xrotation Yrotation
        End Site
        {
          OFFSET 2.6618 -4.2699 12.3931
        }
      }
    }
  }
  JOINT rThigh
  {
    OFFSET -8.367 -8.2066 0.5982
    CHANNELS 3 Zrotation Xrotation Yrotation
    JOINT rShin
    {
      OFFSET -2.1923 -43.463 -0.4931
      CHANNELS 3 Zrotation Xrotation Yrotation
      JOINT rFoot
      {
        OFFSET -0.7333 -45.8593 -2.6451
        CHANNELS 3 Zrotation Xrotation Yrotation
        End Site
        {
          OFFSET -2.6618 -4.2699 12.3931
        }
      }
    }
  }
}
MOTION
Frames:	4
Frame Time:	0.0333333
0 91.7903 2.51682 0 0 -0 0 0 -0 0 0 -0 0 0 -0 0 0 -0 0 0 -0 0 0 -0 1.66051 0.0835086 5.75766 -0.0175111 0.895433 15.7816 7.95139e-016 -1.98785e-016 -0 5.46658e-016 -3.97569e-016 -0 5.96354e-016 0 -0 3.97569e-016 1.98785e-016 9.54166e-015 1.49089e-016 -3.97569e-016 -0 6.4605e-016 0 3.18055e-015 5.96354e-016 0 3.18055e-015 8.94531e-016 -1.98785e-016 6.36111e-015 6.4605e-016 0 3.18055e-015 5.96354e-016 0 3.18055e-015 8.94531e-016 -1.98785e-016 6.36111e-015 1.49089e-016 -3.97569e-016 -0 6.4605e-016 0 3.18055e-015 5.96354e-016 0 3.18055e-015 8.94531e-016 -1.98785e-016 6.36111e-015 6.4605e-016 0 3.18055e-015 5.96354e-016 0 3.18055e-015 8.94531e-016 -1.98785e-016 6.36111e-015 0 0 -0 -1.4496 0.0636048 -5.0245 -1.74811 1.20616 -16.8394 -1.19271e-015 1.98785e-016 -3.18055e-015 -3.97569e-016 1.98785e-016 -3.18055e-015 -2.98177e-016 1.98785e-016 -3.18055e-015 -2.98177e-016 3.97569e-016 -0 4.96962e-016 0 -6.36111e-015 -9.93923e-017 3.97569e-016 -0 -8.94531e-016 5.96354e-016 -0 -3.97569e-016 3.97569e-016 -0 -9.93923e-017 3.97569e-016 -0 -8.94531e-016 5.96354e-016 -0 -3.97569e-016 3.97569e-016 -0 4.96962e-016 0 -6.36111e-015 -9.93923e-017 3.97569e-016 -0 -8.94531e-016 5.96354e-016 -0 -3.97569e-016 3.97569e-016 -0 -9.93923e-017 3.97569e-016 -0 -8.94531e-016 5.96354e-016 -0 -3.97569e-016 3.97569e-016 -0 -4.66111 -0.998717 0.12318 0.00986924 1.54847 0.176523 4.65186 -0.572283 -0.254274 4.66111 -0.998765 -0.123176 -0.00986867 1.54869 -0.176537 -4.65186 -0.572453 0.25427 
24.2838 25.7341 -18.3017 -66.6781 76.3044 -7.09443e-006 1.64923 -1.01536 -0.179586 3.29605 -2.0355 -0.329933 3.29606 -2.03549 -0.329937 -0.00872591 20.7948 -2.67613e-005 -0.0309963 14.4847 0.00922902 -12.0328 -3.78249 -32.0542 -32.4468 -12.3911 -5.72574 16.2905 -24.585 -27.3457 -0.0138847 -0.00112906 0.0100869 -2.00849e-006 1.95571e-006 2.77064e-008 -3.07765e-006 3.9351e-006 5.74775e-007 -4.77083e-015 9.54166e-015 -9.54166e-015 -1.59028e-015 3.18055e-015 -0 -2.00849e-006 1.95571e-006 2.77064e-008 -3.07765e-006 3.9351e-006 5.74775e-007 -3.18055e-015 9.54166e-015 -6.36111e-015 -2.00849e-006 1.95571e-006 2.77064e-008 -3.07765e-006 3.9351e-006 5.74775e-007 -3.18055e-015 9.54166e-015 -6.36111e-015 -1.59028e-015 3.18055e-015 -0 -2.00849e-006 1.95571e-006 2.77064e-008 -3.07765e-006 3.9351e-006 5.74775e-007 -3.18055e-015 9.54166e-015 -6.36111e-015 -2.00849e-006 1.95571e-006 2.77064e-008 -3.07765e-006 3.9351e-006 5.74775e-007 -3.18055e-015 9.54166e-015 -6.36111e-015 -18.1203 -9.10716 23.4458 21.5769 -15.8938 20.7812 36.0359 -53.0783 73.0369 27.7226 25.0598 -7.13468 -3.18055e-015 -9.54166e-015 -3.18055e-015 -6.36111e-015 -3.18055e-015 3.18055e-015 -3.18055e-015 -3.18055e-015 3.18055e-015 -3.18055e-015 -9.54166e-015 -3.18055e-015 -9.54166e-015 -6.36111e-015 9.54166e-015 -3.18055e-015 -9.54166e-015 -0 -7.06225e-031 -6.36111e-015 -6.36111e-015 -9.54166e-015 -6.36111e-015 9.54166e-015 -3.18055e-015 -9.54166e-015 -0 -7.06225e-031 -6.36111e-015 -6.36111e-015 -3.18055e-015 -9.54166e-015 -3.18055e-015 -9.54166e-015 -6.36111e-015 9.54166e-015 -3.18055e-015 -9.54166e-015 -0 -7.06225e-031 -6.36111e-015 -6.36111e-015 -9.54166e-015 -6.36111e-015 9.54166e-015 -3.18055e-015 -9.54166e-015 -0 -7.06225e-031 -6.36111e-015 -6.36111e-015 -6.85657 -53.9971 -3.22277 3.27771 31.4724 -1.11216 4.90957 8.10538 0.0148582 10.0814 -26.6186 3.34062 2.49885 25.1156 -18.4839 -4.40514 23.8901 1.67926 
29.6399 0.040521 -31.5155 83.3168 69.3586 180 2.38778 -1.43732 -0.177725 4.77336 -2.88078 -0.295616 4.77335 -2.88079 -0.295617 -0.012934 29.7304 0.000134691 -0.0463402 20.2747 0.0132716 -18.663 -4.55869 -46.395 -49.6358 -17.5366 -11.4162 15.0531 -24.1453 -48.9832 0.048662 0.00396646 -0.0352696 4.30502e-007 2.52128e-008 -1.65199e-006 1.25649e-006 1.20308e-008 -1.43673e-006 4.30502e-007 2.52128e-008 -1.65199e-006 5.96354e-016 3.18055e-015 -3.97569e-016 4.30502e-007 2.52128e-008 -1.65199e-006 1.25649e-006 1.20308e-008 -1.43673e-006 4.30502e-007 2.52128e-008 -1.65199e-006 4.30502e-007 2.52128e-008 -1.65199e-006 1.25649e-006 1.20308e-008 -1.43673e-006 4.30502e-007 2.52128e-008 -1.65199e-006 5.96354e-016 3.18055e-015 -3.97569e-016 4.30502e-007 2.52128e-008 -1.65199e-006 1.25649e-006 1.20308e-008 -1.43673e-006 4.30502e-007 2.52128e-008 -1.65199e-006 4.30502e-007 2.52128e-008 -1.65199e-006 1.25649e-006 1.20308e-008 -1.43673e-006 4.30502e-007 2.52128e-008 -1.65199e-006 -23.9117 -12.0486 34.1934 36.67 -20.3186 33.7972 54.4633 -25.8916 96.6076 42.6513 35.8919 -12.6459 2.36027e-007 1.34745e-006 7.0213e-006 2.5244e-006 -1.29741e-006 9.03502e-007 1.59028e-015 6.36111e-015 -4.77083e-015 -8.82781e-032 3.18055e-015 1.59028e-015 2.36027e-007 1.34745e-006 7.0213e-006 2.5244e-006 -1.29741e-006 9.03502e-007 3.18055e-015 3.18055e-015 -6.36111e-015 2.36027e-007 1.34745e-006 7.0213e-006 2.5244e-006 -1.29741e-006 9.03502e-007 3.18055e-015 3.18055e-015 -6.36111e-015 -8.82781e-032 3.18055e-015 1.59028e-015 2.36027e-007 1.34745e-006 7.0213e-006 2.5244e-006 -1.29741e-006 9.03502e-007 3.18055e-015 3.18055e-015 -6.36111e-015 2.36027e-007 1.34745e-006 7.0213e-006 2.5244e-006 -1.29741e-006 9.03502e-007 3.18055e-015 3.18055e-015 -6.36111e-015 -16.2091 -78.8096 -12.1941 6.15496 48.3697 -2.67561 5.24115 9.49761 0.23814 13.7339 -36.0754 4.97079 7.60471 27.9948 -28.463 -7.49825 38.9259 3.45507 
28.4536 5.30846 -28.1624 89.9846 76.9891 180 2.22462 -1.2692 -0.192782 4.4466 -2.54492 -0.336238 4.44658 -2.54493 -0.336236 -0.0120304 26.8067 2.86729e-005 -0.0424484 17.3692 0.0109887 -17.0272 -4.70144 -42.8656 -46.0468 -16.2995 -10.3147 15.3095 -24.978 -44.6482 0.187792 0.0152204 -0.136016 1.78906e-015 6.36111e-015 -0 -1.63064e-006 1.72018e-009 -4.75313e-007 -9.93923e-016 6.36111e-015 7.95139e-016 1.59028e-015 6.36111e-015 3.97569e-016 -2.38542e-015 3.18055e-015 3.97569e-015 -1.63064e-006 1.72018e-009 -4.75313e-007 -1.39149e-015 3.18055e-015 -0 -2.38542e-015 3.18055e-015 3.97569e-015 -1.63064e-006 1.72018e-009 -4.75313e-007 -1.39149e-015 3.18055e-015 -0 1.59028e-015 6.36111e-015 3.97569e-016 -2.38542e-015 3.18055e-015 3.97569e-015 -1.63064e-006 1.72018e-009 -4.75313e-007 -1.39149e-015 3.18055e-015 -0 -2.38542e-015 3.18055e-015 3.97569e-015 -1.63064e-006 1.72018e-009 -4.75313e-007 -1.39149e-015 3.18055e-015 -0 -22.7447 -11.7385 31.3484 33.3462 -19.3476 31.0441 52.5827 -32.1636 95.2272 38.932 33.5393 -11.1426 1.35829e-006 -2.36673e-007 4.03123e-006 3.95041e-006 1.43911e-006 3.17496e-007 1.35829e-006 -2.36673e-007 4.03123e-006 3.18055e-015 -3.18055e-015 1.59028e-015 1.35829e-006 -2.36673e-007 4.03123e-006 3.95041e-006 1.43911e-006 3.17496e-007 1.35829e-006 -2.36673e-007 4.03123e-006 1.35829e-006 -2.36673e-007 4.03123e-006 3.95041e-006 1.43911e-006 3.17496e-007 1.35829e-006 -2.36673e-007 4.03123e-006 3.18055e-015 -3.18055e-015 1.59028e-015 1.35829e-006 -2.36673e-007 4.03123e-006 3.95041e-006 1.43911e-006 3.17496e-007 1.35829e-006 -2.36673e-007 4.03123e-006 1.35829e-006 -2.36673e-007 4.03123e-006 3.95041e-006 1.43911e-006 3.17496e-007 1.35829e-006 -2.36673e-007 4.03123e-006 -11.6373 -73.406 -7.7786 5.26628 44.3867 -2.16116 5.09619 9.19268 0.194828 12.6303 -33.285 4.54774 6.21577 26.0771 -26.006 -6.77729 36.3186 3.00205 
